<svg width="1336" height="620" viewBox="0 0 1336 620" fill="none" xmlns="http://www.w3.org/2000/svg">
<g clip-path="url(#clip0_1445_1693)">
<path fill-rule="evenodd" clip-rule="evenodd" d="M930 357C930 408.819 914.634 459.474 885.845 502.559C857.056 545.645 816.137 579.226 768.263 599.056C720.389 618.887 667.709 624.075 616.886 613.966C566.063 603.856 519.379 578.903 482.738 542.262C446.097 505.621 421.144 458.937 411.034 408.114C400.925 357.291 406.113 304.611 425.943 256.737C445.774 208.863 479.355 167.944 522.441 139.155C565.526 110.366 616.181 95 668 95C737.487 95 804.127 122.603 853.262 171.738C902.396 220.873 930 287.513 930 357ZM538.895 212.331C538.935 205.67 540.946 199.17 544.675 193.65C548.405 188.131 553.685 183.84 559.851 181.318C566.016 178.796 572.79 178.156 579.319 179.48C585.847 180.804 591.837 184.031 596.533 188.755C601.23 193.479 604.422 199.488 605.707 206.024C606.992 212.561 606.313 219.331 603.754 225.481C601.196 231.632 596.874 236.887 591.333 240.583C585.791 244.28 579.279 246.253 572.618 246.253C568.173 246.253 563.771 245.374 559.667 243.667C555.562 241.96 551.836 239.458 548.702 236.306C545.568 233.153 543.088 229.412 541.405 225.297C539.722 221.183 538.869 216.776 538.895 212.331ZM436.131 356.8C436.131 328.465 460.276 305.517 489.609 305.517C496.927 305.443 504.185 306.854 510.942 309.667C517.699 312.479 523.815 316.634 528.919 321.88L520.737 331.857C512.846 326.063 503.385 322.793 493.6 322.479C472.448 322.479 455.088 337.843 455.088 356.8C455.088 375.757 472.448 391.321 493.6 391.321C503.44 391.279 512.961 387.823 520.538 381.543L528.919 391.521C523.839 396.812 517.732 401.01 510.973 403.858C504.213 406.706 496.943 408.143 489.609 408.083C460.276 408.083 436.131 385.135 436.131 356.8ZM625.896 405.888H686.557V389.326H642.458V364.982H686.557V348.42H642.458V324.475H686.557V307.713H625.896V405.888ZM787.926 405.888H727.264V307.713H743.827V389.326H787.926V405.888ZM848.786 305.518C823.045 305.518 802.093 328.465 802.093 356.8C802.093 385.135 823.045 408.083 848.786 408.083C874.527 408.083 895.479 385.135 895.479 356.8C895.479 328.465 874.527 305.518 848.786 305.518ZM848.786 392.917C832.822 392.917 819.852 376.754 819.852 356.8C819.852 336.846 832.822 320.882 848.786 320.882C864.749 320.882 877.919 337.045 877.919 356.8C877.919 376.555 864.949 392.917 848.786 392.917ZM584.791 307.713H553.063V324.475H567.829V405.888H584.791V307.713Z" fill="white"/>
</g>
<path fill-rule="evenodd" clip-rule="evenodd" d="M930 357C930 408.819 914.634 459.474 885.845 502.559C857.056 545.645 816.137 579.226 768.263 599.056C720.389 618.887 667.709 624.075 616.886 613.966C566.063 603.856 519.379 578.903 482.738 542.262C446.097 505.621 421.144 458.937 411.034 408.114C400.925 357.291 406.114 304.611 425.944 256.737C445.774 208.863 479.355 167.944 522.441 139.155C565.526 110.366 616.181 95 668 95C737.487 95 804.128 122.603 853.262 171.738C902.397 220.873 930 287.513 930 357ZM538.896 212.331C538.935 205.67 540.946 199.17 544.676 193.65C548.405 188.131 553.686 183.84 559.851 181.318C566.016 178.796 572.79 178.156 579.319 179.48C585.847 180.804 591.837 184.031 596.534 188.755C601.23 193.479 604.422 199.488 605.707 206.024C606.992 212.561 606.313 219.331 603.755 225.481C601.196 231.632 596.874 236.887 591.333 240.583C585.792 244.28 579.28 246.253 572.618 246.253C568.173 246.253 563.771 245.374 559.667 243.667C555.562 241.96 551.836 239.458 548.702 236.306C545.568 233.153 543.088 229.412 541.405 225.297C539.722 221.183 538.869 216.776 538.896 212.331ZM436.131 356.8C436.131 328.465 460.276 305.517 489.609 305.517C496.927 305.443 504.185 306.854 510.942 309.667C517.699 312.479 523.815 316.634 528.919 321.88L520.738 331.857C512.846 326.063 503.385 322.793 493.6 322.479C472.448 322.479 455.088 337.843 455.088 356.8C455.088 375.757 472.448 391.321 493.6 391.321C503.44 391.279 512.961 387.823 520.538 381.543L528.919 391.521C523.839 396.812 517.732 401.01 510.973 403.858C504.213 406.706 496.944 408.143 489.609 408.083C460.276 408.083 436.131 385.135 436.131 356.8ZM625.896 405.888H686.558V389.326H642.459V364.982H686.558V348.42H642.459V324.475H686.558V307.713H625.896V405.888ZM787.926 405.888H727.265V307.713H743.827V389.326H787.926V405.888ZM848.786 305.518C823.045 305.518 802.093 328.465 802.093 356.8C802.093 385.135 823.045 408.083 848.786 408.083C874.527 408.083 895.479 385.135 895.479 356.8C895.479 328.465 874.527 305.518 848.786 305.518ZM848.786 392.917C832.822 392.917 819.852 376.754 819.852 356.8C819.852 336.846 832.822 320.882 848.786 320.882C864.749 320.882 877.919 337.045 877.919 356.8C877.919 376.555 864.949 392.917 848.786 392.917ZM584.791 307.713H553.063V324.475H567.83V405.888H584.791V307.713Z" fill="white"/>
<defs>
<clipPath id="clip0_1445_1693">
<rect width="524" height="524" fill="white" transform="translate(406 95)"/>
</clipPath>
</defs>
</svg>
