<svg width="1336" height="620" viewBox="0 0 1336 620" fill="none" xmlns="http://www.w3.org/2000/svg">
<path d="M1247.51 600.597C1247.53 600.597 1247.54 600.597 1247.57 600.597C1250.5 600.597 1252.92 598.18 1252.92 595.245C1252.92 595.141 1252.92 595.039 1252.9 594.936C1252.9 590.922 1250.49 589.003 1245.51 589.003H1237.48V610.023H1240.51V600.86H1244.22L1244.3 600.971L1250.06 610.023H1253.29L1247.1 600.655L1247.51 600.597ZM1244.01 598.491H1240.51V591.386H1244.95C1247.24 591.386 1249.85 591.76 1249.85 594.763C1249.85 598.215 1247.22 598.491 1244 598.491H1244.01ZM71 370.768H115.576V533.141H198.101V574.278H71V370.768ZM217.809 436.292H260.633V574.202H217.809V436.292ZM239.22 367.73C252.847 367.733 264.059 378.946 264.059 392.572C264.059 406.2 252.844 417.414 239.216 417.414C225.589 417.414 214.374 406.2 214.374 392.572C214.374 378.944 225.589 367.73 239.216 367.73C239.218 367.73 239.219 367.73 239.22 367.73ZM439.769 370.737H482.593V492.36L531.127 436.23H583.63L527.424 500.077L582.448 574.26H528.624L483.164 506.09H482.602V574.251H439.778L439.769 370.737ZM284.378 436.306H325.502V455.153H326.086C334.443 440.833 350.066 432.251 366.635 432.875C410.061 432.875 418.054 461.447 418.054 498.565V574.193H375.23V507.143C375.23 491.138 374.936 470.565 352.927 470.565C330.667 470.565 327.233 487.993 327.233 505.979V574.176H284.409L284.378 436.306Z" fill="white"/>
<path d="M673.815 489.207C673.819 489.005 673.821 488.802 673.821 488.6C673.821 474.515 662.231 462.924 648.145 462.924C647.937 462.924 647.73 462.927 647.522 462.932C632.055 461.969 618.479 473.756 617.261 489.207H673.815ZM710.09 550.319C695.688 567.783 674.164 577.868 651.528 577.758C608.704 577.758 574.419 549.172 574.419 504.908C574.419 460.644 608.701 432.072 651.528 432.072C691.555 432.072 716.656 460.621 716.656 504.908V518.335H617.261C619.808 534.008 633.659 545.532 649.534 545.185C661.906 545.108 673.428 538.754 680.095 528.332L710.09 550.319ZM805.917 469.627C784.505 469.627 771.658 483.924 771.658 504.757C771.658 525.589 784.5 539.898 805.917 539.898C827.333 539.898 840.207 525.624 840.207 504.757C840.207 483.888 827.355 469.627 805.917 469.627ZM879.631 574.176H840.207V555.886H839.623C829.604 569.36 813.838 577.402 797.049 577.601C755.903 577.601 728.798 547.905 728.798 505.911C728.798 467.344 752.785 431.929 792.212 431.929C809.936 431.929 826.49 436.778 836.201 450.218H836.764V370.722H879.626L879.631 574.176ZM1168.73 574.256H1125.91V507.192C1125.91 491.2 1125.62 470.613 1103.64 470.613C1081.33 470.613 1077.92 488.037 1077.92 506.027V574.251H1035.1V436.341H1076.2V455.187H1076.78C1085.15 440.876 1100.77 432.296 1117.34 432.911C1160.75 432.911 1168.75 461.46 1168.75 498.601L1168.73 574.256ZM986.776 417.489C986.773 417.489 986.772 417.489 986.771 417.489C973.138 417.489 961.919 406.272 961.919 392.639C961.919 379.006 973.138 367.788 986.771 367.788C1000.4 367.788 1011.62 379.004 1011.62 392.634C1011.62 392.635 1011.62 392.637 1011.62 392.639C1011.62 406.27 1000.41 417.488 986.776 417.489ZM1008.19 574.256H965.319V436.341H1008.19V574.256ZM1190.08 328.02H943.799C932.239 327.889 922.614 337.29 922.473 348.851V596.153C922.609 607.721 932.232 617.131 943.799 617.007H1190.08C1201.68 617.153 1211.33 607.744 1211.49 596.153V348.834C1211.33 337.249 1201.66 327.849 1190.08 328.002V328.02ZM1244.39 579.64C1233.64 579.743 1224.87 588.606 1224.87 599.346C1224.87 610.159 1233.76 619.055 1244.57 619.055C1255.39 619.055 1264.28 610.159 1264.28 599.346C1264.28 588.606 1255.5 579.743 1244.76 579.64H1244.39ZM1244.39 616.798C1244.28 616.799 1244.19 616.801 1244.09 616.801C1234.61 616.801 1226.82 609 1226.82 599.52C1226.82 590.04 1234.61 582.238 1244.09 582.238C1253.46 582.238 1261.22 589.862 1261.37 599.231V599.522C1261.57 608.795 1254.11 616.589 1244.84 616.789H1244.39" fill="white"/>
</svg>
