<svg width="1336" height="620" viewBox="0 0 1336 620" fill="none" xmlns="http://www.w3.org/2000/svg">
<g clip-path="url(#clip0_1445_1735)">
<path d="M367.947 520.067L383.455 520.194L431.236 620.469L481.034 611.196L425.182 508.522C447.379 495.143 464.877 474.523 464.877 438.831C464.877 397.958 434.608 375.984 389.509 375.984H307.749V616.362H355.176V408.247H379.73C398.568 408.247 417.435 417.519 417.435 444.645C417.435 462.047 407.12 487.606 374.932 487.903H367.933V520.067H367.947ZM269.112 505.403V605.241C245.138 613.864 219.893 620.088 194.295 620.088C116.909 620.088 68 564.82 68 493.661C68 427.681 116.599 370 195.579 370C220.189 370 244.813 378.285 259.517 388.63L245.123 417.308C232.988 410.392 214.121 404.521 196.835 404.521C148.885 404.521 115.95 439.423 115.95 494.338C115.95 551.681 153.683 585.538 192.376 585.538C204.511 585.538 214.432 584.155 224.027 579.667V505.403H269.112ZM506.505 376.506H553.297V613.567H506.505V376.506ZM725.891 407.033H649.521V484.261H704.795V515.085H649.521V613.567H602.743V376.506H725.891V407.033ZM736.263 491.572C736.263 423.87 783.578 370 847.868 370C912.144 370 959.445 423.87 959.445 491.572C959.445 563.776 916.604 620.074 847.868 620.074C779.118 620.088 736.263 563.776 736.263 491.572V491.572ZM911.481 491.572C911.481 447.03 892.615 401.501 847.854 401.501C803.079 401.501 784.213 447.03 784.213 491.572C784.213 537.864 800.85 588.559 847.854 588.559C894.858 588.559 911.481 537.878 911.481 491.572ZM991.605 376.506H1038.4V577.48H1099.82V613.567H991.605V376.506ZM1245.14 417.83C1235.16 410.717 1221.97 404.281 1208.78 404.281C1189.78 404.281 1179.49 415.459 1179.49 429.346C1179.49 444.913 1195.26 456.754 1221.64 478.785C1251.91 504.189 1268 524.174 1268 553.275C1268 583.083 1240.96 617.632 1190.11 617.632C1166.61 617.632 1140.52 610.18 1123.8 593.936L1140.21 566.824C1152.12 575.97 1165.96 585.807 1186.24 585.807C1204.91 585.807 1221.32 575.306 1221.32 552.951C1221.32 526.883 1191.05 509.609 1173.05 494.705C1151.15 476.076 1132.79 461.497 1132.79 430.024C1132.79 398.184 1163.37 372.442 1204.25 372.442C1230 372.442 1250.6 382.264 1261.23 393.103L1245.14 417.83Z" fill="white"/>
</g>
<defs>
<clipPath id="clip0_1445_1735">
<rect width="1336" height="620" fill="white"/>
</clipPath>
</defs>
</svg>
